<svg version="1.1" id="Layer_1" xmlns="http://www.w3.org/2000/svg" xmlns:xlink="http://www.w3.org/1999/xlink" x="0px" y="0px"
	 width="28px" height="28px" viewBox="0 0 96 96" enable-background="new 0 0 96 96" xml:space="preserve">
<path fill="#1a1a1d" opacity="1.000000" stroke="none" 
	d="
M56.000000,97.000000 
	C37.333340,97.000000 19.166677,97.000000 1.000012,97.000000 
	C1.000008,65.000015 1.000008,33.000031 1.000004,1.000034 
	C32.999973,1.000022 64.999947,1.000022 96.999939,1.000011 
	C96.999962,32.999966 96.999962,64.999931 96.999985,96.999954 
	C83.500000,97.000000 70.000000,97.000000 56.000000,97.000000 
M51.012917,6.523754 
	C48.248722,3.320956 46.756290,6.461690 45.681087,7.991398 
	C35.382622,22.643156 27.533588,38.086796 28.897594,56.885887 
	C29.597422,66.531082 33.090286,74.492973 41.665676,78.788025 
	C46.484459,81.201561 47.693832,83.968933 47.015717,88.601509 
	C46.920391,89.252724 46.803841,90.038475 47.072220,90.573952 
	C47.505402,91.438248 48.250340,92.146294 48.863602,92.920334 
	C49.570293,92.070869 50.988400,91.106102 50.872341,90.389977 
	C49.843967,84.044533 51.907452,79.756950 58.301544,77.833168 
	C59.168919,77.572205 59.817215,76.581505 60.565716,75.927277 
	C70.890297,66.903030 69.980881,54.839397 68.444443,43.232353 
	C66.640190,29.602037 59.648373,17.946745 51.012917,6.523754 
z"/>
<path fill="#689F38" opacity="1.000000" stroke="none" 
	d="
M51.272255,6.776832 
	C59.648373,17.946745 66.640190,29.602037 68.444443,43.232353 
	C69.980881,54.839397 70.890297,66.903030 60.565716,75.927277 
	C59.817215,76.581505 59.168919,77.572205 58.301544,77.833168 
	C51.907452,79.756950 49.843967,84.044533 50.872341,90.389977 
	C50.988400,91.106102 49.570293,92.070869 48.863602,92.920334 
	C48.250340,92.146294 47.505402,91.438248 47.072220,90.573952 
	C46.803841,90.038475 46.920391,89.252724 47.015717,88.601509 
	C47.693832,83.968933 46.484459,81.201561 41.665676,78.788025 
	C33.090286,74.492973 29.597422,66.531082 28.897594,56.885887 
	C27.533588,38.086796 35.382622,22.643156 45.681087,7.991398 
	C46.756290,6.461690 48.248722,3.320956 51.272255,6.776832 
M48.568180,56.377247 
	C48.568180,64.125961 48.568180,71.874680 48.568180,79.623398 
	C48.865925,79.623894 49.163673,79.624390 49.461418,79.624886 
	C49.461418,71.877022 49.461418,64.129166 48.568180,56.377247 
z"/>
<path fill="#000000" opacity="1.000000" stroke="none" 
	d="
M49.014801,56.379272 
	C49.461418,64.129166 49.461418,71.877022 49.461418,79.624886 
	C49.163673,79.624390 48.865925,79.623894 48.568180,79.623398 
	C48.568180,71.874680 48.568180,64.125961 49.014801,56.379272 
z"/>
</svg>